<svg width="340" height="340" viewBox="0 0 340 340" fill="none" xmlns="http://www.w3.org/2000/svg">
<rect width="340" height="340" fill="#006C9B"/>
<path d="M92.7266 101.817C92.7266 96.7967 96.7967 92.7266 101.817 92.7266H260.908C265.929 92.7266 269.999 96.7967 269.999 101.817V260.908C269.999 265.929 265.929 269.999 260.908 269.999H101.817C96.7967 269.999 92.7266 265.929 92.7266 260.908V101.817Z" fill="#EB4034"/>
<path fill-rule="evenodd" clip-rule="evenodd" d="M211.698 156.499C210.021 163.297 206.63 174.018 200.133 185.451C197.531 190.03 194.283 194.957 190.265 199.883L189.196 201.194L190.47 202.306C200.633 211.181 212.816 217.404 226.885 220.919L224.011 233.344C205.833 228.832 192.019 220.619 181.582 211.365L180.422 210.336L179.261 211.365C168.825 220.619 155.011 228.832 136.833 233.345L133.958 220.92C148.028 217.404 160.211 211.181 170.374 202.306L171.648 201.194L170.579 199.883C166.56 194.957 163.313 190.03 160.71 185.451C154.213 174.018 150.823 163.297 149.145 156.499L148.817 155.169H130.605V142.365H174.27V126.062H186.312V142.365H229.975V155.169H212.026L211.698 156.499ZM198.255 157.411L198.913 155.169H161.93L162.588 157.411C164.324 163.326 167.26 171.316 172.074 179.666C174.209 183.368 176.53 186.849 179.035 190.105L180.422 191.907L181.808 190.105C184.314 186.849 186.635 183.368 188.769 179.666C193.583 171.316 196.519 163.326 198.255 157.411Z" fill="white"/>
<path fill-rule="evenodd" clip-rule="evenodd" d="M79.0336 70H238.239C243.228 70 247.273 74.0445 247.273 79.0336V83.6364H101.818C91.7767 83.6364 83.6364 91.7767 83.6364 101.818V247.273H79.0336C74.0445 247.273 70 243.228 70 238.239V79.0336C70 74.0445 74.0445 70 79.0336 70Z" fill="#419DE0"/>
</svg>
